<?xml version="1.0" encoding="UTF-8"?>
<svg width="21px" height="20px" viewBox="0 0 21 20" version="1.1" xmlns="http://www.w3.org/2000/svg" xmlns:xlink="http://www.w3.org/1999/xlink">
    <title>切片</title>
    <g id="平台" stroke="none" stroke-width="1" fill="none" fill-rule="evenodd">
        <g id="平台流水线模板-流水线分类管理" transform="translate(-735.000000, -172.000000)" fill-rule="nonzero">
            <g id="编组-12" transform="translate(720.000000, 132.000000)">
                <g id="td/适用编程语言管理" transform="translate(0.000000, 30.000000)">
                    <g id="编组-2" transform="translate(15.992998, 10.000000)">
                        <g id="word" transform="translate(3.330357, 3.000000)">
                            <path d="M11.9996798,12.6666885 C12.0003892,12.8435232 11.9300613,13.0132401 11.8044706,13.1377311 C11.6794331,13.2625055 11.5100717,13.3326861 11.333428,13.3329287 L1.99940611,13.3329287 C1.82259569,13.3336309 1.65290761,13.2633044 1.52843364,13.1377311 C1.40362678,13.0127153 1.33344039,12.8433398 1.3332361,12.6666885 L1.3332361,0.667095717 C1.33253745,0.490203662 1.40285755,0.320429778 1.52843364,0.195842705 C1.65344376,0.0710786987 1.82278916,0.000919517306 1.99940611,0.000700841635 L7.72542127,0.000700841635 C7.90277868,-0.000642754858 8.07334526,0.0688361104 8.19926937,0.193738583 L11.8067852,3.80104398 C11.9315174,3.92706958 12.0009236,4.09758166 11.9996798,4.27489207 L11.9996798,12.6666885 Z" id="路径" fill="#EBECF0"></path>
                            <path d="M11.9996679,12.9667239 L11.9996679,13.4835794 C12.000348,13.6206465 11.9300294,13.7521939 11.8044706,13.8487319 C11.6794331,13.9454282 11.5100717,13.9998161 11.333428,14 L1.99940611,14 C1.63110415,13.99985 1.3325341,13.7684587 1.3325341,13.4830358 L1.3325341,12.9667239 C1.33179518,13.1037576 1.40209718,13.2352819 1.52766213,13.3317677 C1.65267801,13.4284892 1.82205343,13.4828816 1.99870473,13.4830358 L11.3320253,13.4830358 C11.6999642,13.4822891 11.997998,13.2513219 11.9989616,12.9661803 L11.9996679,12.9667239 Z" id="路径" fill="#C1C7D0"></path>
                            <path d="M0,7.33386348 L13.3322029,7.33386348 L13.3322029,10.6672824 C13.3312035,11.0348395 13.0337339,11.3326849 12.6661784,11.3341538 L0.667076559,11.3341538 C0.490218957,11.3348522 0.320475283,11.2645594 0.195893684,11.1390264 C0.0710868243,11.0140105 0.000900431906,10.8446351 0.000701373735,10.6679838 L0,7.33386348 Z" id="路径" fill="#317BFF"></path>
                            <path d="M1.33394271,7.3337232 L1.33394271,5.99992077 L3.63797881e-12,7.3337232 L1.33394271,7.3337232 Z M11.999663,7.3337232 L12.012428,5.99992077 L13.3392868,7.3337232 L11.999663,7.3337232 Z" id="形状" fill="#234AE8"></path>
                            <path d="M11.999663,4.2741907 L11.999663,4.36789423 L8.39249783,4.36789423 C8.02417513,4.36789423 7.72556887,4.06935077 7.72549141,3.70102808 L7.72549141,0 C7.90282457,-0.001325397 8.07336243,0.0681520549 8.19926937,0.19303721 L11.8124663,3.79893985 C11.9346382,3.92676547 12.0018432,4.09738397 11.999663,4.2741907 L11.999663,4.2741907 Z" id="路径" fill="#C1C7D0"></path>
                            <path d="M3.60006372,10.6811785 L3.60006372,10.30382 L2.14345995,10.30382 L2.14345995,7.98683883 L1.7057241,7.98683883 L1.7057241,10.6811785 L3.60006372,10.6811785 Z M4.14723353,10.6811785 L4.39251655,10.0057068 L5.52081844,10.0057068 L5.76610145,10.6811785 L6.23779957,10.6811785 L5.20761089,7.98683883 L4.7057241,7.98683883 L3.67553542,10.6811785 L4.14723353,10.6811785 Z M5.38874296,9.6434426 L4.52459202,9.6434426 L4.95100712,8.46231053 L4.96610145,8.46231053 L5.38874296,9.6434426 Z M6.94345995,10.6811785 L6.94345995,8.71136713 L6.95855428,8.71136713 L8.3057241,10.6811785 L8.73591278,10.6811785 L8.73591278,7.98683883 L8.29062976,7.98683883 L8.29062976,9.93023506 L8.27553542,9.93023506 L6.94345995,7.98683883 L6.50195051,7.98683883 L6.50195051,10.6811785 L6.94345995,10.6811785 Z M10.4830826,10.7340086 C10.724592,10.7340086 10.9396864,10.70382 11.1359128,10.6434426 C11.3208184,10.5830652 11.4830826,10.5000464 11.6264788,10.3868388 L11.6264788,9.24721619 L10.4717618,9.24721619 L10.4717618,9.62457468 L11.1849694,9.62457468 L11.1849694,10.1792917 C11.0944033,10.2321218 11.0000637,10.2736313 10.8944033,10.30382 C10.7811958,10.3340086 10.6604411,10.349103 10.5321392,10.349103 C10.2038373,10.349103 9.96232787,10.2585369 9.80761089,10.0774049 C9.66421466,9.90759355 9.59251655,9.66231053 9.59251655,9.34532939 C9.59251655,9.01325392 9.67176183,8.76042373 9.83402598,8.57929166 C9.98119579,8.40570675 10.1811958,8.32268789 10.434026,8.32268789 C10.6377996,8.32268789 10.8038373,8.36419732 10.9283656,8.45098977 C11.0491203,8.53778223 11.1321392,8.66608411 11.169875,8.83966902 L11.6151581,8.83966902 C11.5661015,8.53778223 11.4453467,8.31514072 11.2528939,8.16419732 C11.0528939,8.00948034 10.7811958,7.93400864 10.434026,7.93400864 C10.034026,7.93400864 9.71704485,8.0698577 9.48308259,8.34910298 C9.26044108,8.60948034 9.15100712,8.94155581 9.15100712,9.34532939 C9.15100712,9.74532939 9.26044108,10.0736313 9.48308259,10.3264615 C9.72081844,10.5981596 10.0528939,10.7340086 10.4830826,10.7340086 Z" id="LANG" fill="#FFFFFF"></path>
                        </g>
                    </g>
                </g>
            </g>
        </g>
    </g>
</svg>