<?xml version="1.0" encoding="UTF-8"?>
<svg width="32px" height="32px" viewBox="0 0 32 32" version="1.1" xmlns="http://www.w3.org/2000/svg" xmlns:xlink="http://www.w3.org/1999/xlink">
    <title>钉钉01</title>
    <g id="组织" stroke="none" stroke-width="1" fill="none" fill-rule="evenodd">
        <g id="第三方应用管理" transform="translate(-312.000000, -212.000000)" fill-rule="nonzero">
            <g id="编组-4" transform="translate(292.000000, 196.000000)">
                <g id="钉钉01" transform="translate(20.000000, 16.000000)">
                    <rect id="矩形" fill="#000000" opacity="0" x="0" y="0" width="32" height="32"></rect>
                    <path d="M16,0.0625 C7.19375,0.0625 0.0625,7.19375 0.0625,16 C0.0625,24.80625 7.19375,31.9375 16,31.9375 C24.80625,31.9375 31.9375,24.80625 31.9375,16 C31.9375,7.19375 24.790625,0.0625 16,0.0625 Z M23.371875,13.875 C23.340625,14.01875 23.259375,14.2125 23.146875,14.471875 L23.13125,14.4875 C22.45625,15.91875 20.715625,18.721875 20.715625,18.721875 L20.7,18.70625 L20.184375,19.590625 L22.646875,19.590625 L17.946875,25.8375 L19.009375,21.5875 L17.078125,21.5875 L17.753125,18.76875 C17.20625,18.896875 16.5625,19.075 15.80625,19.33125 C15.80625,19.33125 14.775,19.928125 12.84375,18.171875 C12.84375,18.171875 11.540625,17.0125 12.296875,16.740625 C12.61875,16.6125 13.859375,16.465625 14.840625,16.3375 C16.159375,16.159375 16.98125,16.0625 16.98125,16.0625 C16.98125,16.0625 12.909375,16.128125 11.94375,15.965625 C10.978125,15.821875 9.753125,14.19375 9.496875,12.778125 C9.496875,12.778125 9.09375,12.00625 10.365625,12.375 C11.621875,12.74375 16.903125,13.80625 16.903125,13.80625 C16.903125,13.80625 10.04375,11.71875 9.59375,11.203125 C9.14375,10.6875 8.25625,8.403125 8.36875,7 C8.36875,7 8.415625,6.646875 8.771875,6.74375 C8.771875,6.74375 13.828125,9.0625 17.2875,10.31875 C20.765625,11.60625 23.775,12.25 23.371875,13.875 Z" id="形状" fill="#3296FA"></path>
                </g>
            </g>
        </g>
    </g>
</svg>