<?xml version="1.0" encoding="UTF-8"?>
<svg  viewBox="0 0 1120 64" version="1.1" xmlns="http://www.w3.org/2000/svg" xmlns:xlink="http://www.w3.org/1999/xlink">
    <title>钉钉bg</title>
    <defs>
        <linearGradient x1="0%" y1="50%" x2="100%" y2="50%" id="linearGradient-1">
            <stop stop-color="#FFFFFF" offset="0%"></stop>
            <stop stop-color="#F1F2F5" offset="100%"></stop>
        </linearGradient>
        <path d="M4,0 L1116,0 C1118.20914,-4.05812251e-16 1120,1.790861 1120,4 L1120,64 L1120,64 L0,64 L0,4 C-2.705415e-16,1.790861 1.790861,4.05812251e-16 4,0 Z" id="path-2"></path>
    </defs>
    <g id="组织" stroke="none" stroke-width="1" fill="none" fill-rule="evenodd">
        <g id="第三方应用管理" transform="translate(-292.000000, -482.000000)">
            <g id="钉钉bg" transform="translate(292.000000, 482.000000)">
                <mask id="mask-3" fill="white">
                    <use xlink:href="#path-2"></use>
                </mask>
                <use id="蒙版" fill="url(#linearGradient-1)" xlink:href="#path-2"></use>
                <path d="M1037.11725,23.0566706 C1037.00115,23.5907336 1036.69928,24.3105576 1036.28132,25.2741931 L1036.22327,25.3322434 C1033.7155,30.6496532 1027.24869,41.0638817 1027.24869,41.0638817 L1027.19064,41.0058313 L1025.27498,44.2914798 L1034.42371,44.2914798 L1016.96217,67.5 L1020.9096,51.7103114 L1013.73458,51.7103114 L1016.24235,41.2380326 C1014.21059,41.7140453 1011.81891,42.375819 1009.00928,43.3278444 C1009.00928,43.3278444 1005.17796,45.5453668 998.002937,39.0205102 C998.002937,39.0205102 993.16154,34.713176 995.971176,33.7031004 C997.167012,33.2270877 1001.77621,32.6814146 1005.42177,32.2054019 C1010.32122,31.5436282 1013.37466,31.1837162 1013.37466,31.1837162 C1013.37466,31.1837162 998.246748,31.4275276 994.659238,30.8238042 C991.071728,30.2897412 986.520583,24.2408973 985.568557,18.9815377 C985.568557,18.9815377 984.070859,16.1138517 988.796155,17.4838393 C993.463402,18.853827 1013.08441,22.8012492 1013.08441,22.8012492 C1013.08441,22.8012492 987.600319,15.0457257 985.928469,13.1300649 C984.25662,11.2144042 980.959361,2.72744654 981.377324,-2.48547271 C981.377324,-2.48547271 981.551475,-3.79741008 982.875022,-3.43749806 C982.875022,-3.43749806 1001.66011,5.17717028 1014.51245,9.84441647 C1027.43445,14.6277633 1038.61495,17.0194367 1037.11725,23.0566706 Z" id="路径" fill-opacity="0.16" fill="#9EADBE" mask="url(#mask-3)" transform="translate(1009.296665, 32.000000) rotate(40.000000) translate(-1009.296665, -32.000000) "></path>
            </g>
        </g>
    </g>
</svg>